<?xml version="1.0" encoding="UTF-8" standalone="no"?>
<!-- Created with Inkscape (http://www.inkscape.org/) -->

<svg
   width="210mm"
   height="210mm"
   viewBox="0 0 210 210"
   version="1.1"
   id="svg5"
   inkscape:version="1.1.1 (3bf5ae0d25, 2021-09-20)"
   sodipodi:docname="arrow-up.svg"
   xmlns:inkscape="http://www.inkscape.org/namespaces/inkscape"
   xmlns:sodipodi="http://sodipodi.sourceforge.net/DTD/sodipodi-0.dtd"
   xmlns="http://www.w3.org/2000/svg"
   xmlns:svg="http://www.w3.org/2000/svg">
  <sodipodi:namedview
     id="namedview7"
     pagecolor="#ffffff"
     bordercolor="#666666"
     borderopacity="1.0"
     inkscape:pageshadow="2"
     inkscape:pageopacity="0.0"
     inkscape:pagecheckerboard="0"
     inkscape:document-units="mm"
     showgrid="false"
     inkscape:zoom="0.25"
     inkscape:cx="518"
     inkscape:cy="38"
     inkscape:window-width="1920"
     inkscape:window-height="1137"
     inkscape:window-x="-8"
     inkscape:window-y="-8"
     inkscape:window-maximized="1"
     inkscape:current-layer="layer1" />
  <defs
     id="defs2" />
  <g
     inkscape:label="Calque 1"
     inkscape:groupmode="layer"
     id="layer1">
    <path
       style="fill:#1e1e1e;fill-opacity:1;stroke-width:0.289402"
       id="path77"
       d="m 75.2803,31.6896 c -0.342396,1.080992 -0.557009,2.205209 -1.027188,3.242977 C 68.490292,47.652179 59.216633,58.835546 49.744761,69.253487 38.537275,81.580395 31.92587,87.239338 19.774214,98.494575 15.300353,102.29857 10.82649,106.10256 6.3526306,109.90656 l 14.7976314,1.12338 v 0 c 4.028724,-3.84974 8.05745,-7.6995 12.086175,-11.549247 C 53.586085,79.538248 41.701628,91.276283 62.873845,70.134979 73.963863,59.061149 99.296516,49.377861 98.954506,34.120802 98.924483,32.78119 86.986623,20.758313 87.778999,19.553393 Z"
       sodipodi:nodetypes="ccscccscsscc" />
    <path
       style="fill:#1e1e1e;fill-opacity:1;stroke-width:0.289402"
       id="path79"
       d="m 76.546112,34.390317 c 0.64026,1.001703 1.704549,2.512035 2.416152,3.47034 1.40953,1.898189 2.807131,3.817073 4.435115,5.554273 7.456286,7.956495 14.030275,13.282506 23.393221,19.79551 14.44151,10.045719 22.58602,14.072956 38.02948,22.666303 15.5584,7.476483 19.93509,10.08483 35.74847,15.854567 4.76783,1.73961 9.68025,3.10719 14.52037,4.66078 l 15.4909,-1.84688 v 0 c -5.26556,-1.46652 -10.60796,-2.7086 -15.79664,-4.39958 C 177.70683,94.580475 174.13814,92.310133 157.507,84.640485 151.12911,81.057876 144.55361,77.768723 138.37332,73.892654 126.54456,66.474052 118.76772,60.616808 109.51881,50.81644 c -4.27045,-4.525076 -6.98467,-8.527696 -9.51677,-13.825743 -0.440647,-0.922002 -0.969664,-2.504282 -1.311803,-3.462456 z"
       sodipodi:nodetypes="cssscsccsscssscc" />
    <path
       style="fill:#1e1e1e;fill-opacity:1;stroke-width:0.289402"
       id="path81"
       d="m 70.439444,43.628596 c 0.793861,4.743434 1.779558,10.38861 2.187528,14.879652 0.612712,6.744909 1.08287,24.085772 1.35548,30.216314 1.64912,37.085908 0.485951,2.365435 1.587238,39.750758 0.258144,6.64276 0.539521,13.28476 0.774436,19.92829 0.216866,6.13322 0.420541,12.26697 0.580908,18.40173 1.186262,45.38032 -0.425224,-10.10965 0.550114,29.03823 0.08847,3.55094 0.238882,7.10028 0.358321,10.65042 0,0 17.60461,-0.13632 17.60461,-0.13632 v 0 c -0.504157,-3.53714 -1.058338,-7.0683 -1.512472,-10.61141 -2.862981,-22.3365 -4.460796,-44.81581 -5.09577,-67.30201 -0.581259,-24.55953 -0.705927,-15.29882 0.07907,-39.719688 0.155694,-4.843476 0.841092,-24.553764 1.35548,-30.216314 0.40797,-4.491042 1.39367,-10.136218 2.187534,-14.879652 0,0 -22.012484,0 -22.012483,0 z" />
  </g>
</svg>
