<?xml version="1.0" encoding="UTF-8" standalone="no"?>
<!-- Created with Inkscape (http://www.inkscape.org/) -->

<svg
   width="204.6111mm"
   height="199.67223mm"
   viewBox="0 0 204.6111 199.67223"
   version="1.1"
   id="svg5"
   inkscape:version="1.1.1 (3bf5ae0d25, 2021-09-20)"
   sodipodi:docname="cog.svg"
   xmlns:inkscape="http://www.inkscape.org/namespaces/inkscape"
   xmlns:sodipodi="http://sodipodi.sourceforge.net/DTD/sodipodi-0.dtd"
   xmlns="http://www.w3.org/2000/svg"
   xmlns:svg="http://www.w3.org/2000/svg">
  <sodipodi:namedview
     id="namedview7"
     pagecolor="#ffffff"
     bordercolor="#666666"
     borderopacity="1.0"
     inkscape:pageshadow="2"
     inkscape:pageopacity="0.0"
     inkscape:pagecheckerboard="0"
     inkscape:document-units="mm"
     showgrid="false"
     inkscape:zoom="0.46929649"
     inkscape:cx="-186.44929"
     inkscape:cy="495.42241"
     inkscape:window-width="1920"
     inkscape:window-height="1137"
     inkscape:window-x="-8"
     inkscape:window-y="-8"
     inkscape:window-maximized="1"
     inkscape:current-layer="layer1" />
  <defs
     id="defs2" />
  <g
     inkscape:label="Calque 1"
     inkscape:groupmode="layer"
     id="layer1"
     transform="translate(-255.29042,-18.166571)">
    <path
       style="fill:#1e1e1e;stroke-width:0.352778;fill-opacity:1"
       d="m 342.65912,211.11356 c -0.60938,-0.39041 -1.27485,-1.1418 -1.47882,-1.66975 -0.20398,-0.52795 -1.02138,-5.35367 -1.81647,-10.72383 -0.79508,-5.37015 -1.56121,-10.44115 -1.70252,-11.26888 l -0.25692,-1.50497 -3.34504,-1.28497 c -1.83977,-0.70674 -4.2776,-1.70793 -5.41741,-2.22487 -1.1398,-0.51694 -2.20641,-0.93989 -2.37024,-0.93989 -0.16383,0 -4.15251,2.91197 -8.86374,6.47106 -4.71123,3.55909 -8.91262,6.65471 -9.33643,6.87917 -1.5833,0.83854 -3.45426,0.50434 -5.28318,-0.94372 -2.88242,-2.28218 -15.40349,-14.88469 -17.75905,-17.87457 -2.83553,-3.59911 -3.34575,-4.76285 -2.80565,-6.39935 0.22209,-0.67296 2.97442,-4.50904 6.11628,-8.52461 3.14186,-4.01557 6.12267,-7.8366 6.62401,-8.49118 l 0.91153,-1.19013 -1.67604,-3.57237 c -0.92182,-1.9648 -2.03846,-4.60424 -2.48142,-5.86542 -0.44295,-1.26118 -0.91143,-2.41686 -1.04105,-2.56818 -0.12963,-0.15131 -5.303,-1.06866 -11.49639,-2.03855 -6.19339,-0.96988 -11.61826,-1.9144 -12.05527,-2.09893 -0.43701,-0.18453 -1.1111,-0.85468 -1.49799,-1.48923 -0.67288,-1.10362 -0.70342,-1.78941 -0.70342,-15.794 0,-13.89045 0.0352,-14.69801 0.68739,-15.76764 0.37807,-0.62004 1.05216,-1.35644 1.49799,-1.63644 0.4555,-0.28607 5.60136,-1.228054 11.7467,-2.150321 6.01486,-0.902679 11.26302,-1.77627 11.66257,-1.941306 0.4416,-0.182404 0.90592,-0.902953 1.18413,-1.837591 0.25172,-0.845641 1.24952,-3.321954 2.21734,-5.502914 l 1.75965,-3.965385 -1.68815,-2.365728 c -0.92848,-1.30115 -3.97502,-5.212136 -6.77007,-8.691076 -2.79505,-3.478943 -5.24367,-6.789367 -5.44138,-7.356503 -0.80338,-2.304574 0.43172,-4.370751 6.35022,-10.623216 6.4491,-6.812995 12.28154,-12.20635 15.20516,-14.060452 1.63065,-1.034131 3.22084,-1.265729 4.68994,-0.683055 0.44919,0.178159 4.66406,3.344262 9.36638,7.035784 l 8.54967,6.71186 2.38644,-1.100963 c 1.31254,-0.605525 3.8901,-1.676587 5.72791,-2.380132 l 3.34147,-1.279176 0.79906,-6.507732 c 0.97325,-7.926349 2.40558,-15.922017 3.089,-17.243604 1.12672,-2.178846 0.81689,-2.140518 17.30355,-2.140518 16.41244,0 16.54731,0.01565 17.59524,2.042123 0.2764,0.534516 1.26323,6.105897 2.19294,12.380846 1.53114,10.334268 1.75852,11.436325 2.41382,11.699077 1.48475,0.595331 8.87103,3.589005 9.74732,3.95061 0.84763,0.349775 1.50037,-0.07178 9.525,-6.151495 4.73826,-3.589852 8.96177,-6.710064 9.38558,-6.933804 1.00194,-0.52896 3.25018,-0.499924 4.24865,0.05487 1.21897,0.677319 12.92333,12.020249 16.26815,15.765803 3.28565,3.679289 5.70014,7.146918 5.70014,8.186406 0,1.16948 -1.02638,2.728645 -5.97428,9.075474 -2.65759,3.40898 -5.51452,7.109957 -6.34873,8.224397 l -1.51674,2.026249 1.78402,4.147362 c 0.98122,2.281047 2.12219,5.060174 2.5355,6.175834 0.41331,1.11566 0.85913,2.031001 0.99071,2.034088 0.13158,0.0032 5.30043,0.781432 11.48633,1.729647 11.82162,1.812101 12.5343,2.019711 13.53628,3.943191 0.33779,0.64843 0.42079,4.37545 0.35278,15.84099 -0.0852,14.36467 -0.1185,15.03309 -0.79449,15.9482 -0.38805,0.52533 -0.94368,1.06555 -1.23472,1.20049 -0.29104,0.13493 -5.76441,1.06199 -12.16305,2.06012 l -11.63388,1.81478 -1.16189,2.98195 c -0.63904,1.64008 -1.73833,4.21055 -2.44286,5.71215 l -1.28098,2.7302 3.14064,4.14745 c 1.72735,2.2811 4.62284,5.95287 6.43441,8.15949 5.70733,6.9519 5.79745,7.37835 2.44741,11.58049 -3.26854,4.09991 -16.32241,17.0275 -18.92236,18.73931 -2.53878,1.67153 -4.12491,1.8936 -5.8801,0.82324 -0.58828,-0.35875 -4.74293,-3.52984 -9.23256,-7.04686 l -8.16295,-6.39459 -2.5855,1.16852 c -1.42202,0.64268 -3.85549,1.61867 -5.40771,2.16886 -1.55223,0.5502 -3.00041,1.13492 -3.21819,1.2994 -0.21778,0.16447 -0.50067,1.44735 -0.62863,2.85084 -0.40915,4.4874 -1.99747,15.30271 -2.64885,18.03672 -0.72303,3.0348 -1.45766,4.33637 -2.71797,4.81554 -0.51346,0.19522 -7.14845,0.33453 -15.76836,0.33109 -14.30413,-0.006 -14.9249,-0.0335 -15.98986,-0.71578 z m 22.09825,-55.8851 c 5.64341,-0.86048 9.96703,-2.53886 14.766,-5.73198 11.70647,-7.78922 18.10379,-21.26178 16.65702,-35.07922 -0.94796,-9.05356 -4.40186,-16.329226 -10.77925,-22.706615 -5.07317,-5.073171 -10.95631,-8.436057 -17.71326,-10.12515 -4.48234,-1.120489 -13.37313,-1.120489 -17.85548,0 -10.76591,2.69125 -19.89702,10.061724 -24.78587,20.006735 -2.21498,4.50573 -3.2203,8.10386 -3.64555,13.04761 -1.10858,12.88775 3.65585,24.28677 13.6202,32.58666 8.22201,6.84859 18.73913,9.67873 29.73619,8.00196 z"
       id="path836" />
  </g>
</svg>
