<?xml version="1.0" encoding="UTF-8" standalone="no"?>
<!-- Created with Inkscape (http://www.inkscape.org/) -->

<svg
   width="61.764069mm"
   height="83.344017mm"
   viewBox="0 0 61.764069 83.344017"
   version="1.1"
   id="svg5"
   inkscape:version="1.1.1 (3bf5ae0d25, 2021-09-20)"
   sodipodi:docname="dessin.svg"
   xmlns:inkscape="http://www.inkscape.org/namespaces/inkscape"
   xmlns:sodipodi="http://sodipodi.sourceforge.net/DTD/sodipodi-0.dtd"
   xmlns="http://www.w3.org/2000/svg"
   xmlns:svg="http://www.w3.org/2000/svg">
  <sodipodi:namedview
     id="namedview7"
     pagecolor="#ffffff"
     bordercolor="#666666"
     borderopacity="1.0"
     inkscape:pageshadow="2"
     inkscape:pageopacity="0.0"
     inkscape:pagecheckerboard="0"
     inkscape:document-units="mm"
     showgrid="false"
     inkscape:zoom="0.66368547"
     inkscape:cx="134.85304"
     inkscape:cy="342.78286"
     inkscape:window-width="1920"
     inkscape:window-height="1137"
     inkscape:window-x="-8"
     inkscape:window-y="-8"
     inkscape:window-maximized="1"
     inkscape:current-layer="layer1" />
  <defs
     id="defs2" />
  <g
     inkscape:label="Calque 1"
     inkscape:groupmode="layer"
     id="layer1"
     transform="translate(-69.181058,-57.992425)">
    <g
       id="g832"
       transform="matrix(0.26458333,0,0,0.26458333,58.391085,57.992425)">
      <path
         d="M 256.774,23.942 H 191.938 V 17.477 C 191.938,7.841 184.194,0 174.675,0 h -34.348 c -9.521,0 -17.266,7.841 -17.266,17.478 v 6.465 H 58.226 c -9.619,0 -17.445,7.76 -17.445,17.297 v 11.429 c 0,7.168 4.42,13.33 10.698,15.951 1.989,39.623 13.5,231.193 14.018,239.801 0.222,3.696 3.284,6.58 6.987,6.58 h 170.033 c 3.703,0 6.766,-2.884 6.987,-6.58 0.518,-8.607 12.028,-200.178 14.018,-239.801 6.278,-2.621 10.698,-8.783 10.698,-15.951 v -11.43 c 0,-9.537 -7.826,-17.297 -17.446,-17.297 z M 137.061,17.478 c 0,-1.918 1.465,-3.478 3.266,-3.478 h 34.348 c 1.8,0 3.264,1.56 3.264,3.478 v 6.465 H 137.062 V 17.478 Z M 54.779,41.239 c 0,-1.818 1.546,-3.297 3.445,-3.297 h 198.549 c 1.899,0 3.445,1.478 3.445,3.297 v 11.429 c 0,1.819 -1.546,3.299 -3.445,3.299 H 58.225 c -1.899,0 -3.445,-1.479 -3.445,-3.299 V 41.239 Z M 235.922,301 H 79.074 C 77.019,266.753 67.595,109.326 65.564,69.967 H 249.431 C 247.4,109.326 237.977,266.753 235.922,301 Z"
         id="path824" />
      <path
         d="m 157.5,95.125 c -3.866,0 -7,3.134 -7,7 v 176.109 c 0,3.866 3.134,7 7,7 3.866,0 7,-3.134 7,-7 V 102.125 c 0,-3.866 -3.134,-7 -7,-7 z"
         id="path826" />
      <path
         d="m 110.2,102.04 c -0.202,-3.86 -3.507,-6.837 -7.355,-6.625 -3.86,0.201 -6.827,3.494 -6.625,7.355 l 9.182,175.829 c 0.195,3.736 3.285,6.635 6.984,6.635 0.123,0 0.247,-0.003 0.371,-0.01 3.86,-0.201 6.827,-3.494 6.625,-7.355 z"
         id="path828" />
      <path
         d="m 212.155,95.415 c -3.899,-0.223 -7.153,2.764 -7.355,6.625 l -9.184,175.829 c -0.202,3.861 2.765,7.154 6.625,7.355 0.125,0.007 0.248,0.01 0.371,0.01 3.698,0 6.789,-2.898 6.984,-6.635 L 218.78,102.77 c 0.202,-3.861 -2.764,-7.154 -6.625,-7.355 z"
         id="path830" />
    </g>
  </g>
</svg>
