<?xml version="1.0" encoding="UTF-8" standalone="no"?>
<!-- Created with Inkscape (http://www.inkscape.org/) -->

<svg
   version="1.1"
   id="svg2"
   width="267.99506"
   height="220.77434"
   viewBox="0 0 267.99506 220.77434"
   sodipodi:docname="news.svg"
   inkscape:version="1.1.1 (3bf5ae0d25, 2021-09-20)"
   xmlns:inkscape="http://www.inkscape.org/namespaces/inkscape"
   xmlns:sodipodi="http://sodipodi.sourceforge.net/DTD/sodipodi-0.dtd"
   xmlns="http://www.w3.org/2000/svg"
   xmlns:svg="http://www.w3.org/2000/svg">
  <defs
     id="defs6" />
  <sodipodi:namedview
     id="namedview4"
     pagecolor="#ffffff"
     bordercolor="#666666"
     borderopacity="1.0"
     inkscape:pageshadow="2"
     inkscape:pageopacity="0.0"
     inkscape:pagecheckerboard="0"
     showgrid="false"
     inkscape:zoom="1.6545055"
     inkscape:cx="79.47994"
     inkscape:cy="-12.390409"
     inkscape:window-width="1920"
     inkscape:window-height="1137"
     inkscape:window-x="-8"
     inkscape:window-y="-8"
     inkscape:window-maximized="1"
     inkscape:current-layer="g8" />
  <g
     inkscape:groupmode="layer"
     inkscape:label="Image"
     id="g8"
     transform="translate(-28.399577,-47.639098)">
    <path
       style="fill:#222;stroke-width:1.33333;fill-opacity:1"
       d="m 142.73836,267.18153 c -18.81845,-3.16778 -40.66057,-13.91464 -55.248323,-27.18352 -7.93091,-7.21388 -20.42379,-22.43557 -20.42379,-24.88493 0,-0.67744 40.459623,-1.18308 94.666663,-1.18308 52.06667,0 94.66667,0.38843 94.66667,0.86316 0,0.47475 -3.29415,5.23983 -7.32032,10.58909 -20.49232,27.22652 -53.93484,43.49016 -88.46364,43.02131 -6.35216,-0.0863 -14.39692,-0.63616 -17.87726,-1.22203 z m 23.0353,-14.95448 c 2.74093,-4.45142 5.88776,-13.70938 7.4002,-21.77136 l 0.85582,-4.56197 h -12.84045 -12.84046 l 0.88502,3.66667 c 3.52467,14.60282 9.36757,27 12.72537,27 0.63046,0 2.34698,-1.95 3.8145,-4.33334 z m -23.33819,-3.33333 c -0.50384,-1.28333 -2.21803,-6.97879 -3.80932,-12.65656 l -2.89324,-10.32324 -9.71358,-0.0107 c -8.83994,-0.009 -9.60114,0.19975 -8.46342,2.32323 3.75489,7.00827 20.80326,23 24.5197,23 0.70177,0 0.8637,-1.05 0.35986,-2.33333 z m 46.27576,-2.36361 c 3.47141,-2.54696 9.02341,-8.0821 12.33777,-12.30028 l 6.02611,-7.66944 -9.49833,-0.39499 c -5.22408,-0.21724 -9.72944,-0.16389 -10.0119,0.11853 -0.28245,0.28246 -1.7433,4.9602 -3.24633,10.39499 -1.50303,5.4348 -3.06965,10.93144 -3.48139,12.21477 -1.09189,3.40332 0.77966,2.84154 7.87407,-2.36361 z m -77.24558,-4.96972 c -0.58653,-0.91667 -3.06781,-4.81667 -5.51395,-8.66667 -4.21713,-6.63739 -4.73514,-6.99717 -9.999823,-6.94532 l -5.5523,0.0547 6,5.44914 c 4.994043,4.53555 14.229003,11.40112 15.732923,11.69638 0.21977,0.0432 -0.0803,-0.67156 -0.66685,-1.58823 z m 113.93393,-8.7537 c 3.11666,-2.51214 5.66666,-5.09526 5.66666,-5.74025 0,-0.645 -2.25,-1.15571 -5,-1.13491 -4.63248,0.0351 -5.34302,0.59606 -9.66666,7.63232 -2.56667,4.17698 -4.90008,8.16022 -5.18538,8.85164 -0.60118,1.45704 6.02602,-3.03205 14.18538,-9.6088 z M 35.901647,193.62037 c -6.56006,-4.88937 -7.50207,-9.2807 -7.50207,-34.97192 0,-25.48632 0.92456,-29.61861 7.77605,-34.75473 3.48832,-2.61497 5.91646,-2.67353 125.250283,-3.02062 134.53072,-0.3913 126.90857,-0.8569 132.36097,8.08535 2.3372,3.83312 2.60324,6.82587 2.60771,29.33482 0.005,27.46773 -0.63368,30.35872 -7.84739,35.49533 -3.87496,2.75921 -4.44816,2.7716 -126.35345,2.72955 l -122.460843,-0.0422 z m 51.45129,-18.72665 0.37997,-13.66667 3.8947,13.66667 3.8947,13.66667 h 6.438633 6.43864 v -28 -28 h -5.33334 -5.333333 l -0.12025,11.66666 c -0.10331,10.02223 -0.30425,11.0089 -1.42567,7 -0.71798,-2.56666 -2.21504,-7.84625 -3.3268,-11.7324 l -2.02138,-7.06573 -6.58884,0.39906 -6.58882,0.39907 -0.031,26.66667 c -0.017,14.66667 -9.1e-4,27.11667 0.0359,27.66667 0.0368,0.55 2.14589,1 4.68691,1 h 4.62002 z m 61.046643,10.33333 c 0,-1.83333 -0.75,-3.39761 -1.66667,-3.47618 -0.91667,-0.0785 -3.46667,-0.22858 -5.66667,-0.33334 l -4,-0.19048 -0.39174,-9.66666 -0.39175,-9.66667 h 5.39175 c 4.86231,0 5.39174,-0.32732 5.39174,-3.33333 0,-3 -0.53333,-3.33334 -5.33333,-3.33334 h -5.33333 v -7.33333 -7.33333 h 6.08856 c 5.85546,0 6.07241,-0.14038 5.66667,-3.66667 -0.42049,-3.65445 -0.46077,-3.66795 -12.08857,-4.05191 l -11.66666,-0.38524 v 28.05191 28.05191 h 12 c 11.91111,0 12,-0.0247 12,-3.33334 z m 35.95698,-11.33333 1.95698,-14 1.80973,12.66667 c 0.99535,6.96666 2.04588,13.41666 2.33451,14.33333 0.3341,1.06111 3.12468,1.66667 7.68048,1.66667 h 7.1557 l 3.11243,-25 c 4.11452,-33.04898 4.23448,-30.33334 -1.33997,-30.33334 h -4.6665 l -2.11782,11.33334 c -2.32014,12.4159 -2.2068,12.55485 -4.67451,-5.73077 l -0.86336,-6.39742 -6.83761,0.39742 -6.83763,0.39743 -2.10353,11.33334 -2.10354,11.33333 -0.98092,-8 c -1.92134,-15.66983 -1.75484,-15.33333 -7.58737,-15.33333 -3.29597,0 -5.22533,0.61579 -5.22184,1.66666 0.003,0.91667 1.50056,13.36667 3.32779,27.66667 1.82722,14.3 3.32473,26.18288 3.32778,26.40639 0.003,0.22352 2.85555,0.22352 6.33888,0 l 6.33334,-0.40639 z m 67.43695,11.39393 c 6.33,-6.32998 3.64096,-21.07041 -5.119,-28.0606 -6.51189,-5.1963 -10.37163,-16.66666 -5.60827,-16.66666 1.48148,0 2,1.55555 2,6 v 6 h 5.33334 5.33333 v -7.0785 c 0,-8.8543 -1.94396,-11.56615 -8.96625,-12.50803 -11.95336,-1.60329 -17.70042,2.61751 -17.70042,12.99967 0,6.23263 0.4938,7.27356 6.4832,13.66667 3.56576,3.80611 7.16576,8.23075 8,9.83253 2.2044,4.23258 1.94874,11.08766 -0.41352,11.08766 -1.38857,0 -2.04342,-1.96455 -2.33333,-7 l -0.40301,-7 -5.66667,-0.41 -5.66667,-0.41 v 8.13728 c 0,6.86178 0.51299,8.65025 3.27274,11.40998 2.69425,2.69427 4.59034,3.27274 10.72726,3.27274 6.13692,0 8.03302,-0.57847 10.72727,-3.27274 z M 65.732907,103.53657 c 0,-0.5631 1.60442,-3.41311 3.56537,-6.333335 23.18595,-34.528368 64.714303,-53.854043 104.767963,-48.754926 26.5271,3.377087 48.77638,14.545682 66.8144,33.539194 5.96875,6.284912 12.24066,13.934912 13.93758,17.000002 l 3.08532,5.572885 h -96.08532 c -52.84692,0 -96.085313,-0.46072 -96.085313,-1.02382 z M 102.56665,88.893725 c 1.22571,-2.01666 3.97682,-6.216664 6.11359,-9.33333 2.13677,-3.116667 3.49037,-5.666667 3.00801,-5.666667 -2.3928,0 -21.955343,15.554887 -21.955343,17.457487 0,0.66505 2.38617,1.20918 5.3026,1.20918 4.35551,0 5.700633,-0.6549 7.531143,-3.66667 z m 35.79114,-7.666664 c 1.57998,-5.866666 3.33996,-12.060114 3.91106,-13.763217 l 1.03838,-3.096549 -4.45382,2.300192 c -5.27255,2.72302 -18.09706,15.642693 -21.56351,21.723518 l -2.44301,4.28551 10.3191,-0.3914 10.31911,-0.39139 z m 36.70845,10.815824 c 0,-0.28464 -1.5275,-5.78863 -3.39446,-12.231098 -5.87843,-20.285234 -10.11444,-24.008891 -15.45392,-13.584726 -2.42972,4.743488 -7.71762,21.927924 -7.79543,25.333334 -0.0126,0.55 5.97715,1 13.31048,1 7.33333,0 13.33333,-0.23288 13.33333,-0.51751 z m 29.47608,-5.14916 c -2.19196,-3.11666 -5.37078,-7.260876 -7.06405,-9.209357 -3.44437,-3.963483 -15.34711,-13.123973 -17.05272,-13.123973 -0.60671,0 -0.0292,2.85 1.28348,6.333333 1.31263,3.483333 3.15047,9.783333 4.08408,13.999997 l 1.69748,7.66667 h 10.51855 10.51854 z m 29.19059,4.99653 c 0,-1.84909 -20.94117,-18.833127 -21.9622,-17.812111 -0.27812,0.278131 1.84959,4.087537 4.72825,8.465349 2.87867,4.377812 5.23395,8.422542 5.23395,8.988282 0,0.56574 2.7,1.02862 6,1.02862 3.3,0 6,-0.30156 6,-0.67014 z"
       id="path1135" />
  </g>
</svg>
