<?xml version="1.0" encoding="UTF-8" standalone="no"?>
<!-- Created with Inkscape (http://www.inkscape.org/) -->

<svg
   version="1.1"
   id="svg2"
   width="896.01428"
   height="1916.6543"
   viewBox="0 0 896.01428 1916.6543"
   sodipodi:docname="pen.svg"
   inkscape:version="1.1.1 (3bf5ae0d25, 2021-09-20)"
   xmlns:inkscape="http://www.inkscape.org/namespaces/inkscape"
   xmlns:sodipodi="http://sodipodi.sourceforge.net/DTD/sodipodi-0.dtd"
   xmlns="http://www.w3.org/2000/svg"
   xmlns:svg="http://www.w3.org/2000/svg">
  <defs
     id="defs6" />
  <sodipodi:namedview
     id="namedview4"
     pagecolor="#ffffff"
     bordercolor="#666666"
     borderopacity="1.0"
     inkscape:pageshadow="2"
     inkscape:pageopacity="0.0"
     inkscape:pagecheckerboard="0"
     showgrid="false"
     inkscape:zoom="0.13718608"
     inkscape:cx="-2868.3668"
     inkscape:cy="244.19387"
     inkscape:window-width="1920"
     inkscape:window-height="1137"
     inkscape:window-x="-8"
     inkscape:window-y="-8"
     inkscape:window-maximized="1"
     inkscape:current-layer="g8" />
  <g
     inkscape:groupmode="layer"
     inkscape:label="Image"
     id="g8"
     transform="translate(-20.553301,-3.6926422)">
    <path
       style="fill:#1e1e1e;fill-opacity:1"
       d="m 20.553301,1920.0468 c 0,-0.4482 3.80897,-20.2257 8.46439,-43.95 10.89382,-55.5157 17.58085,-91.2511 21.63843,-115.6352 1.78467,-10.725 3.3544,-19.6503 3.48829,-19.8339 0.65547,-0.8992 64.337009,27.4607 63.964899,28.486 -0.53299,1.4687 -95.418069,149.5239 -96.642759,150.7979 -0.50229,0.5225 -0.91325,0.5833 -0.91325,0.1352 z m 71,-172.5099 c -46.1951,-20.1156 -54.46794,-24.0248 -54.28957,-25.6536 0.23199,-2.1185 82.267509,-291.7254 82.782949,-292.2455 0.17649,-0.1781 34.45018,14.5084 76.16376,32.6367 41.71357,18.1282 82.14286,35.6871 89.84286,39.0197 7.7,3.3327 14,6.4593 14,6.9483 0,1.7618 -152.0242,263.1961 -153,263.1123 -0.55,-0.047 -25.525,-10.7653 -55.499999,-23.8179 z M 267.0533,1484.1419 c -19.25,-8.3829 -59.44079,-25.7828 -89.31286,-38.6666 -42.09122,-18.1538 -54.21431,-23.7725 -53.8749,-24.9693 0.44171,-1.5576 514.29738,-1186.81652 519.62379,-1198.56366 l 2.86522,-6.3191 83.84937,36.44857 c 46.11716,20.04671 86.66188,37.66046 90.09938,39.14167 3.4375,1.4812 6.25,3.02551 6.25,3.4318 0,2.32054 -522.10437,1204.35302 -523.18795,1204.52722 -0.72163,0.116 -17.06205,-6.6478 -36.31205,-15.0306 z m 432,-693.8261 c -8.8,-3.86445 -16.16018,-7.18525 -16.35595,-7.37956 -0.34566,-0.34306 198.10319,-458.64456 199.74831,-461.30251 0.63931,-1.0329 4.51815,0.2742 17.46474,5.88532 9.1536,3.96721 16.64933,7.71472 16.65718,8.3278 0.0284,2.21849 -199.54048,461.58126 -200.51428,461.53881 -0.55,-0.024 -8.2,-3.20541 -17,-7.06986 z m -25.29567,-29.35427 c -2.7826,-8.8 -7.15359,-22.63998 -9.7133,-30.75551 -2.55971,-8.11553 -4.50019,-15.21702 -4.31217,-15.78108 0.31383,-0.94149 57.88803,-28.27157 58.37497,-27.71019 0.17771,0.20487 -33.46697,77.64856 -37.90354,87.24678 -1.36779,2.95913 -1.45561,2.78202 -6.44596,-13 z M 834.0533,353.81772 c -9.35,-4.11293 -17.3985,-7.87163 -17.88556,-8.35268 -0.70115,-0.69249 17.92242,-46.00351 18.9082,-46.00351 0.13268,0 8.50686,3.58707 18.60929,7.97128 10.62953,4.61294 18.32692,8.51111 18.27041,9.25263 -0.20685,2.71392 -18.91708,44.77169 -19.88266,44.69321 -0.56082,-0.0456 -8.66968,-3.44801 -18.01968,-7.56093 z m -93,-107.92735 c -18.15,-7.91124 -33.41353,-14.53198 -33.91895,-14.71277 -0.50543,-0.18079 20.92025,-50.68689 47.61262,-112.23577 l 48.53158,-111.9070705 4.88738,-1.289523 c 2.68805,-0.709238 8.93737,-1.564479 13.88737,-1.900536 15.15364,-1.028785 26.71315,3.138784 36.70788,13.2343485 5.48106,5.536354 12.79212,16.572376 12.79212,19.309658 0,1.84556 -96.2557,224.116463 -96.99552,223.979273 -0.27746,-0.0515 -15.35448,-6.56638 -33.50448,-14.47761 z"
       id="path12" />
  </g>
</svg>
