<?xml version="1.0" encoding="UTF-8" standalone="no"?>
<!-- Created with Inkscape (http://www.inkscape.org/) -->

<svg
   width="346.38327mm"
   height="283.60825mm"
   viewBox="0 0 346.38327 283.60824"
   version="1.1"
   id="svg5"
   inkscape:version="1.1.1 (3bf5ae0d25, 2021-09-20)"
   sodipodi:docname="popup.svg"
   xmlns:inkscape="http://www.inkscape.org/namespaces/inkscape"
   xmlns:sodipodi="http://sodipodi.sourceforge.net/DTD/sodipodi-0.dtd"
   xmlns="http://www.w3.org/2000/svg"
   xmlns:svg="http://www.w3.org/2000/svg">
  <sodipodi:namedview
     id="namedview7"
     pagecolor="#ffffff"
     bordercolor="#666666"
     borderopacity="1.0"
     inkscape:pageshadow="2"
     inkscape:pageopacity="0.0"
     inkscape:pagecheckerboard="0"
     inkscape:document-units="mm"
     showgrid="false"
     inkscape:zoom="0.32"
     inkscape:cx="151.5625"
     inkscape:cy="323.4375"
     inkscape:window-width="1920"
     inkscape:window-height="1137"
     inkscape:window-x="-8"
     inkscape:window-y="-8"
     inkscape:window-maximized="1"
     inkscape:current-layer="layer1" />
  <defs
     id="defs2" />
  <g
     inkscape:label="Calque 1"
     inkscape:groupmode="layer"
     id="layer1"
     transform="translate(35.052903,-73.841235)">
    <path
       style="fill:#000000;stroke-width:0.352778"
       d="m -17.530513,356.91893 c -6.31,-1.52892 -11.84468,-6.10861 -14.87811,-12.31095 -2.94325,-6.01795 -2.69689,6.36062 -2.58755,-130.01227 l 0.0974,-121.53195 0.96111,-2.82222 c 2.13119,-6.25804 6.36169,-11.31694 11.63915,-13.91827 5.47768,-2.70002 -9.2316,-2.47296 160.645403,-2.47978 150.91702,-0.006 152.81778,0.002 155.50461,0.68956 3.99122,1.02078 7.33958,2.92351 10.25095,5.82521 2.88311,2.87351 4.75766,5.90443 6.11268,9.88328 l 0.96111,2.82222 0.0974,121.53195 c 0.10936,136.37289 0.3557,123.99432 -2.58756,130.01227 -2.40474,4.91687 -5.7774,8.31212 -10.66648,10.73784 -4.61377,2.28914 8.57839,2.11684 -160.05729,2.09028 C 7.8269474,357.4156 -15.805253,357.337 -17.530593,356.91893 Z m 311.320773,-4.73468 c 4.55532,-1.407 8.64948,-4.91785 10.77881,-9.24308 2.38605,-4.84682 2.19749,6.07618 2.19749,-127.28713 0,-133.36331 0.18856,-122.44031 -2.19749,-127.28713 -2.12933,-4.32524 -6.22349,-7.83609 -10.77881,-9.24308 -2.24712,-0.69406 -3.64419,-0.70035 -155.65148,-0.70035 -152.007313,0 -153.404373,0.006 -155.651493,0.70035 -5.99216,1.85079 -10.7215,7.01893 -12.43181,13.58525 -0.48567,1.8646 -0.54448,15.14588 -0.54448,122.94496 0,107.79908 0.0588,121.08036 0.54448,122.94495 1.69387,6.50321 6.13519,11.43277 12.14737,13.48275 l 2.3012,0.78464 153.509373,0.009 c 152.14549,0.009 153.52951,0.003 155.77684,-0.69124 z m -194.025773,-39.00716 -0.78405,-0.54917 v -13.15449 c 0,-12.29582 0.0421,-13.19259 0.64514,-13.73832 0.591893,-0.53565 3.775893,-0.58385 38.574493,-0.58385 36.29732,0 37.95448,0.0278 38.5132,0.64514 0.5212,0.57592 0.58384,2.05004 0.58384,13.73833 v 13.09319 l -0.78405,0.54917 c -0.69772,0.4887 -4.92314,0.54917 -38.37428,0.54917 -33.45114,0 -37.67657,-0.0605 -38.374293,-0.54917 z M 172.711,299.43876 v -9.70139 h -34.57222 -34.57222 v 9.70139 9.70139 H 138.13878 172.711 Z M 27.366547,252.45175 c -1.55486,-0.55825 -1.95663,-3.21449 -0.62706,-4.14576 0.70558,-0.49421 11.85482,-0.54917 111.399293,-0.54917 99.54446,0 110.6937,0.055 111.39928,0.54917 0.91858,0.64339 1.06447,2.46026 0.28333,3.52854 -0.49366,0.67512 -2.06368,0.68565 -111.2132,0.746 -60.891863,0.0337 -110.950603,-0.0243 -111.241643,-0.12878 z m -0.70555,-24.09771 c -0.38806,-0.38806 -0.70556,-1.10243 -0.70556,-1.5875 0,-0.48507 0.3175,-1.19945 0.70556,-1.5875 0.70256,-0.70257 1.17592,-0.70556 111.599493,-0.70556 106.98422,0 110.91452,0.0228 111.47778,0.64514 0.77494,0.8563 0.74255,2.62966 -0.0613,3.35713 -0.59742,0.54066 -8.84189,0.58384 -111.47778,0.58384 -110.362273,0 -110.835633,-0.003 -111.538193,-0.70555 z m 85.823753,-30.69116 c -0.43076,-0.17751 -0.88939,-0.74583 -1.01917,-1.26293 -0.14329,-0.57092 0.61461,-5.8824 1.92972,-13.52376 1.19114,-6.92097 2.1657,-12.92147 2.1657,-13.33445 0,-0.51862 -3.00077,-3.67476 -9.70139,-10.20368 -8.619533,-8.39867 -9.701393,-9.57592 -9.701393,-10.5568 0,-2.05491 0.25539,-2.12856 14.652543,-4.22534 7.34372,-1.06954 13.38637,-1.98031 13.4281,-2.02394 0.0417,-0.0436 2.7699,-5.48088 6.06259,-12.08278 3.29268,-6.6019 6.23397,-12.20867 6.53619,-12.45949 0.30222,-0.25082 1.0758,-0.40552 1.71907,-0.34377 1.16167,0.11151 1.21124,0.19485 7.34318,12.34795 3.39549,6.72963 6.26577,12.32512 6.37841,12.43443 0.11264,0.10931 6.22452,1.07389 13.58195,2.14351 11.81366,1.71747 13.44929,2.03139 13.9945,2.6859 1.3246,1.59017 1.07804,1.91063 -9.27715,12.05734 l -9.89452,9.69533 2.32261,13.48641 c 2.15202,12.49592 2.28246,13.54767 1.77616,14.32039 -1.16969,1.78517 -1.50248,1.66706 -14.40841,-5.11344 l -12.14192,-6.37911 -11.75039,6.17779 c -6.46271,3.39778 -12.07952,6.2465 -12.48179,6.33048 -0.40226,0.084 -1.08383,0.007 -1.51459,-0.17004 z m 46.63442,-6.70329 c -129.448049,-78.0789 -64.724024,-39.03945 0,0 z m 99.51322,-63.57849 c -1.19007,-1.69907 -0.86241,-2.20785 5.62014,-8.72679 l 6.1693,-6.20394 -6.1693,-6.16175 c -4.93241,-4.92637 -6.16931,-6.35188 -6.16931,-7.11006 0,-1.07778 1.4293,-2.41063 2.58508,-2.41063 0.46889,0 2.91891,2.1829 6.91763,6.1634 l 6.19159,6.16341 6.198,-6.16341 c 3.98911,-3.9668 6.45605,-6.1634 6.92196,-6.1634 1.15393,0 2.58297,1.33367 2.58297,2.41063 0,0.75818 -1.23691,2.18369 -6.16931,7.11006 l -6.1693,6.16175 6.1693,6.20394 c 5.26994,5.29951 6.16931,6.35987 6.16931,7.27355 0,1.3189 -0.95427,2.23729 -2.32474,2.23729 -0.86861,0 -1.9945,-0.96132 -7.02387,-5.99722 -3.2942,-3.29848 -6.1517,-5.99723 -6.35,-5.99723 -0.19831,0 -3.05581,2.69875 -6.35,5.99723 -5.26043,5.26726 -6.12703,5.99722 -7.11986,5.99722 -0.76822,0 -1.30637,-0.25121 -1.67959,-0.78405 z"
       id="path935"
       sodipodi:nodetypes="cscccsccsscsssscccssssscsscsccccscssssscsssccccccccccssssscsssssssscssssssssssssssscssscsscccsscsssscsssscssssssss" />
    <path
       style="fill:#ffffff;stroke-width:2.20971"
       d="m 63.764567,1049.4654 c -15.470239,-5.9978 -29.452824,-18.8944 -37.320334,-34.4218 l -6.556855,-12.9407 V 535.85436 69.605824 L 24.98429,59.361338 C 32.826364,43.599245 44.165684,31.81771 58.06176,24.993902 L 70.710678,18.782524 H 655.17863 1239.6466 l 11.1372,5.878941 c 6.1255,3.233417 15.2391,10.328877 20.2524,15.767688 16.6978,18.115006 16.7974,18.53741 18.5887,78.895117 2.0515,69.12106 2.1087,761.23682 0.069,833.11726 -1.5165,53.44127 -1.62,54.33487 -7.4359,64.25897 -7.7081,13.1529 -20.2898,25.216 -32.6676,31.3212 l -9.9438,4.9045 -582.25826,0.4728 c -576.988944,0.4686 -582.3611,0.433 -593.623773,-3.9336 z m 727.311143,-143.126 11.04855,-1.46369 0.59531,-50.82157 c 0.53679,-45.82452 0.22367,-51.09335 -3.18447,-53.58544 -4.68812,-3.42805 -284.80114,-4.01047 -290.19725,-0.60338 -2.79148,1.76253 -3.31456,10.21371 -3.31456,53.5516 v 51.45879 l 11.04855,1.31014 c 15.32236,1.81691 260.41145,1.95426 274.00387,0.15357 z M 1073.9213,673.96007 c 4.6369,-1.76297 5.6731,-3.4393 5.1157,-8.27591 -0.5436,-4.71559 -2.1742,-6.37806 -7.3283,-7.47147 -8.6686,-1.83901 -817.17167,-2.35661 -830.48603,-0.53168 -11.19789,1.53485 -14.57508,6.09754 -10.35278,13.98697 l 2.40987,4.50288 H 650.6931 c 273.06269,0 419.4242,-0.76454 423.2282,-2.21079 z m -4.4223,-87.99966 c 7.9863,-1.41625 8.8388,-2.20319 8.8388,-8.15906 v -6.59165 l -18.7825,-1.70747 c -10.3304,-0.9391 -200.08652,-1.43628 -421.68033,-1.10485 -384.74241,0.57545 -403.02861,0.78149 -405.80024,4.57231 -4.55094,6.22439 -1.71536,12.23027 6.24688,13.23116 12.66747,1.59234 822.16259,1.35817 831.17739,-0.24044 z m -460.48209,-139.03823 45.99703,-23.74575 44.23519,22.79166 c 48.84565,25.16717 55.92812,26.96426 57.14167,14.49887 0.36873,-3.78752 -2.89189,-27.75568 -7.24579,-53.26257 l -7.91621,-46.37613 34.51454,-34.02092 c 18.98301,-18.71152 35.87358,-36.62367 37.5346,-39.80478 5.69875,-10.914 2.29385,-12.24528 -52.9476,-20.70234 -27.84804,-4.26333 -50.84213,-8.00297 -51.09802,-8.31032 -0.25586,-0.30737 -11.12497,-21.12163 -24.15357,-46.25396 -13.0286,-25.13231 -25.15804,-46.25909 -26.95431,-46.94838 -6.95785,-2.66998 -12.08548,4.55611 -33.95666,47.85334 -12.44393,24.63459 -22.81925,45.03694 -23.05626,45.33855 -0.23701,0.3016 -20.23729,3.54103 -44.44502,7.19874 -24.20776,3.65769 -46.75883,7.22106 -50.11352,7.91858 -6.5677,1.3656 -12.68309,6.3363 -12.68309,10.30904 0,1.35144 16.40709,18.96733 36.4602,39.14647 30.75722,30.95051 36.45619,37.71341 36.43469,43.23647 -0.0133,3.60094 -2.98565,23.94862 -6.60363,45.21707 -8.76434,51.52168 -8.65927,58.64823 0.87695,59.48768 1.08998,0.0959 22.68045,-10.51115 47.97881,-23.57132 z m 535.43699,-263.44832 22.386,-22.02906 23.6645,22.17902 c 19.8083,18.565 24.6599,22.06457 29.7741,21.47663 4.76,-0.54722 6.2608,-2.00809 6.793,-6.61252 0.5657,-4.89426 -3.191,-9.93238 -21.8557,-29.31067 l -22.5387,-23.40055 22.408,-23.03163 c 21.7633,-22.36886 25.2746,-28.396611 19.7564,-33.91479 -5.8574,-5.857443 -11.9821,-2.306713 -34.1799,19.81554 l -22.5439,22.46718 -23.5318,-22.46718 c -12.9425,-12.356956 -25.1098,-22.467191 -27.0383,-22.467191 -4.005,0 -11.5884,6.224319 -11.5884,9.511537 0,1.208602 10.6518,13.006854 23.6707,26.218344 l 23.6708,24.02088 -22.316,22.6052 c -12.2738,12.43286 -22.7912,24.09676 -23.3721,25.91977 -1.7704,5.55573 2.5491,11.04854 8.6884,11.04854 4.3333,0 11.3315,-5.47591 28.1529,-22.02905 z"
       id="path1109"
       transform="matrix(0.26458333,0,0,0.26458333,-35.052903,73.841235)" />
    <path
       style="fill:#ffffff;stroke-width:2.20971"
       d="m 524.80582,852.94756 v -35.35534 h 129.26795 129.26796 v 35.35534 35.35534 H 654.07377 524.80582 Z"
       id="path1185"
       transform="matrix(0.26458333,0,0,0.26458333,-35.052903,73.841235)" />
  </g>
</svg>
