<?xml version="1.0" encoding="UTF-8" standalone="no"?>
<!-- Created with Inkscape (http://www.inkscape.org/) -->

<svg
   width="15.19409mm"
   height="13.146662mm"
   viewBox="0 0 15.19409 13.146662"
   version="1.1"
   id="svg5"
   inkscape:version="1.1.1 (3bf5ae0d25, 2021-09-20)"
   sodipodi:docname="shop.svg"
   xmlns:inkscape="http://www.inkscape.org/namespaces/inkscape"
   xmlns:sodipodi="http://sodipodi.sourceforge.net/DTD/sodipodi-0.dtd"
   xmlns="http://www.w3.org/2000/svg"
   xmlns:svg="http://www.w3.org/2000/svg">
  <sodipodi:namedview
     id="namedview7"
     pagecolor="#ffffff"
     bordercolor="#666666"
     borderopacity="1.0"
     inkscape:pageshadow="2"
     inkscape:pageopacity="0.0"
     inkscape:pagecheckerboard="0"
     inkscape:document-units="mm"
     showgrid="false"
     inkscape:zoom="21.237935"
     inkscape:cx="10.617793"
     inkscape:cy="27.380252"
     inkscape:window-width="1920"
     inkscape:window-height="1137"
     inkscape:window-x="-8"
     inkscape:window-y="-8"
     inkscape:window-maximized="1"
     inkscape:current-layer="layer1" />
  <defs
     id="defs2" />
  <g
     inkscape:label="Calque 1"
     inkscape:groupmode="layer"
     id="layer1"
     transform="translate(-126.35377,-148.11029)">
    <path
       style="fill:#1e1e1e;stroke-width:0.0195385;fill-opacity:1"
       d="m 127.24233,161.24253 c -0.19608,-0.0464 -0.40596,-0.22024 -0.48845,-0.40447 -0.0629,-0.14057 -0.07,-0.39101 -0.0151,-0.53661 0.0537,-0.14254 0.19975,-0.30414 0.34193,-0.37844 l 0.10786,-0.0564 3e-5,-2.9907 4e-5,-2.9907 -0.11234,-0.0347 c -0.24932,-0.0771 -0.50228,-0.26651 -0.6161,-0.46134 -0.11478,-0.19648 -0.14063,-0.47987 -0.0584,-0.63987 0.032,-0.0623 0.52266,-0.89139 2.09542,-3.54088 0.16904,-0.28478 0.36932,-0.62328 0.44506,-0.75223 0.13908,-0.23679 0.19727,-0.30821 0.26855,-0.32965 0.0215,-0.006 1.7272,-0.0132 3.79047,-0.0149 4.12274,-0.003 3.84409,-0.0114 3.93149,0.11273 0.0217,0.0308 0.15625,0.24937 0.2991,0.48579 0.49167,0.81372 1.20589,1.99428 1.60168,2.64746 0.21813,0.35999 0.50299,0.83038 0.63301,1.04531 l 0.23641,0.39076 v 0.20516 c 0,0.20105 -0.002,0.208 -0.0762,0.34774 -0.17218,0.32227 -0.55476,0.54761 -0.9789,0.57659 l -0.11723,0.008 -0.005,0.25675 -0.005,0.25675 h 0.10803 0.10802 l 4e-5,-0.13188 c 4e-5,-0.1627 0.0419,-0.25545 0.13674,-0.30282 0.0626,-0.0313 0.15979,-0.0342 1.15828,-0.0342 1.17314,-4e-5 1.1917,0.001 1.24819,0.10089 0.0142,0.0251 0.0303,0.11596 0.0358,0.20193 l 0.01,0.15631 0.0827,0.006 c 0.0582,0.004 0.0915,0.0185 0.11234,0.0483 0.0628,0.0896 0.0132,0.1633 -0.1169,0.17383 l -0.0781,0.006 -0.01,0.46568 -0.01,0.46568 -0.0638,0.057 -0.0638,0.057 h -1.13389 c -1.22379,0 -1.21384,8.1e-4 -1.27303,-0.10277 -0.0174,-0.0305 -0.028,-0.17988 -0.0348,-0.49315 l -0.01,-0.44938 h -0.0977 -0.0977 l -0.005,2.60136 -0.005,2.60136 0.0538,0.0133 c 0.15066,0.0372 0.33656,0.21154 0.41919,0.39308 0.0665,0.14621 0.0631,0.4075 -0.007,0.55871 -0.0722,0.155 -0.19234,0.27778 -0.34545,0.35316 l -0.12898,0.0635 -5.59818,0.003 c -3.21047,0.002 -5.62947,-0.004 -5.67153,-0.0144 z m 11.28886,-0.24989 c 0.17545,-0.0797 0.28201,-0.24677 0.28201,-0.44214 0,-0.19537 -0.10656,-0.36243 -0.28201,-0.44213 -0.0755,-0.0343 -0.29619,-0.0357 -5.65682,-0.0357 -5.57019,0 -5.57836,6e-5 -5.66615,0.0398 -0.24138,0.10926 -0.34736,0.36242 -0.25469,0.60836 0.0469,0.12442 0.16879,0.24868 0.27843,0.28381 0.0443,0.0142 1.7956,0.0211 5.64241,0.0221 5.36249,0.002 5.58127,1.8e-4 5.65682,-0.0341 z m -10.95174,-1.16585 c 0,-0.006 -0.0176,-0.0344 -0.0391,-0.0635 -0.0215,-0.0291 -0.0495,-0.10254 -0.0622,-0.16315 -0.0435,-0.20757 0.0433,-0.42091 0.21839,-0.53678 l 0.0783,-0.0518 v -2.19645 c 0,-1.91045 0.004,-2.2038 0.0292,-2.25291 0.0642,-0.12408 -0.022,-0.11745 1.52411,-0.11745 1.54606,0 1.45995,-0.007 1.52411,0.11745 0.0254,0.0491 0.0292,0.34246 0.0292,2.25291 v 2.19645 l 0.0783,0.0518 c 0.22251,0.14725 0.29399,0.44333 0.16542,0.68515 l -0.0472,0.0888 h 0.0971 0.0971 v -2.61912 c 0,-2.84488 -0.006,-2.68757 0.10577,-2.76082 0.0445,-0.0292 0.17995,-0.0322 1.42639,-0.0322 0.99915,0 1.39082,0.006 1.42672,0.0226 0.0272,0.0124 0.065,0.0454 0.084,0.0733 0.0324,0.0477 0.0348,0.20523 0.0396,2.68352 l 0.005,2.63281 h 0.0604 c 0.0478,0 0.0579,-0.007 0.0482,-0.0318 -0.0914,-0.23821 -0.0473,-0.44492 0.12873,-0.60399 l 0.0845,-0.0763 0.01,-2.26699 c 0.009,-2.12432 0.0119,-2.27018 0.0442,-2.31771 0.019,-0.0279 0.0567,-0.0609 0.084,-0.0733 0.036,-0.0164 0.44543,-0.0225 1.49984,-0.0225 1.30924,0 1.45478,0.003 1.49584,0.0319 0.10344,0.0725 0.1,-0.011 0.10003,2.40493 l 6e-5,2.24267 0.059,0.0391 c 0.17255,0.11432 0.25744,0.3839 0.18457,0.58616 -0.0155,0.043 -0.0283,0.0804 -0.0285,0.083 -1.6e-4,0.003 0.0349,0.005 0.0779,0.005 h 0.0781 v -2.58885 -2.58884 h -0.0938 c -0.10501,0 -0.14068,-0.0241 -0.14068,-0.0952 0,-0.0772 0.0531,-0.11975 0.14957,-0.11975 h 0.0849 v -0.27042 -0.27043 l -0.10367,-0.0232 c -0.13706,-0.0307 -0.331,-0.12369 -0.45872,-0.22003 l -0.10324,-0.0779 -0.10115,0.0805 c -0.4527,0.36045 -1.17492,0.36479 -1.6362,0.01 l -0.1166,-0.0897 -0.0994,0.0786 c -0.22592,0.17858 -0.48971,0.2633 -0.81981,0.2633 -0.32988,0 -0.59391,-0.0847 -0.81938,-0.26295 l -0.0989,-0.0782 -0.10258,0.0817 c -0.28921,0.23031 -0.74306,0.32628 -1.13426,0.23984 -0.17138,-0.0379 -0.4257,-0.15668 -0.53115,-0.24814 l -0.0779,-0.0676 -0.0784,0.0673 c -0.11232,0.0964 -0.36752,0.21595 -0.53395,0.25015 -0.39369,0.0809 -0.82045,-0.006 -1.11302,-0.22706 l -0.1055,-0.0797 -0.052,0.0488 c -0.0917,0.0862 -0.24316,0.16999 -0.40366,0.22338 -0.14009,0.0466 -0.1857,0.052 -0.43961,0.0524 -0.25673,4e-4 -0.29706,-0.004 -0.42985,-0.0511 -0.18112,-0.0637 -0.30347,-0.13141 -0.41279,-0.22842 l -0.084,-0.0746 -0.0974,0.077 c -0.20748,0.16401 -0.42769,0.24363 -0.7344,0.26553 l -0.18562,0.0133 -0.005,2.95519 -0.005,2.95519 h 0.088 c 0.0484,0 0.088,-0.005 0.088,-0.0106 z m 6.54538,-2.58806 v -2.59861 h -1.30907 -1.30908 v 2.59861 2.59862 h 1.30908 1.30907 z m -0.75223,0.58743 c -0.089,-0.0217 -0.17133,-0.0697 -0.2427,-0.14152 -0.19426,-0.19554 -0.18099,-0.53352 0.0282,-0.71715 0.10288,-0.0903 0.19363,-0.12427 0.3325,-0.12435 0.36645,-1.9e-4 0.60857,0.39516 0.44198,0.7217 -0.10212,0.20018 -0.34515,0.3136 -0.55993,0.26132 z m 0.24607,-0.24645 c 0.18356,-0.0949 0.17736,-0.39653 -0.01,-0.48543 -0.17434,-0.0827 -0.37201,0.0266 -0.3954,0.21864 -0.025,0.20536 0.21664,0.36439 0.40538,0.26679 z m 4.23377,2.22715 c 0.15227,-0.10665 0.13012,-0.37417 -0.0395,-0.47762 -0.062,-0.0378 -0.1012,-0.0388 -1.50953,-0.0388 -1.40833,0 -1.4475,0.001 -1.50952,0.0388 -0.12887,0.0786 -0.1806,0.25856 -0.11228,0.39066 0.0643,0.12442 -0.0319,0.11745 1.6218,0.11745 1.33266,0 1.51054,-0.003 1.54907,-0.0305 z m -7.03262,-0.0591 c 0.0834,-0.0498 0.1267,-0.12419 0.13574,-0.23314 0.0104,-0.12579 -0.027,-0.20402 -0.12737,-0.26644 l -0.0737,-0.0459 h -1.42631 c -1.39122,0 -1.42794,9.6e-4 -1.49248,0.0391 -0.0981,0.0579 -0.14311,0.15293 -0.13343,0.28156 0.007,0.0941 0.0168,0.11398 0.0884,0.18074 l 0.0804,0.075 h 1.44847 c 1.28698,0 1.45426,-0.003 1.50034,-0.0309 z m 6.86101,-2.89005 v -2.19807 h -1.37746 -1.37746 v 2.19807 2.19808 h 1.37746 1.37746 z m -7.03384,-0.0391 v -2.159 h -1.31885 -1.31885 v 2.159 2.159 h 1.31885 1.31885 z m 10.44846,-1.9685 0.005,-0.63989 h -1.06512 -1.06511 v 0.64494 0.64494 l 1.05996,-0.005 1.05996,-0.005 z m -1.34026,0.3586 c -0.0175,-0.0108 -0.0226,-0.0768 -0.0186,-0.23805 l 0.006,-0.22313 0.11513,-0.006 c 0.0959,-0.005 0.12264,10e-4 0.16018,0.0366 0.13173,0.12376 0.0231,0.33884 -0.1517,0.30044 -0.0524,-0.0115 -0.0552,-0.009 -0.0552,0.0566 0,0.0742 -0.0171,0.0968 -0.0553,0.0731 z m 0.22195,-0.23708 c 0.0284,-0.0314 0.032,-0.0507 0.0172,-0.0928 -0.0155,-0.0439 -0.0303,-0.0531 -0.0861,-0.0531 -0.0558,0 -0.0707,0.009 -0.0861,0.0531 -0.0148,0.0421 -0.0112,0.0614 0.0172,0.0928 0.0197,0.0218 0.0508,0.0397 0.0689,0.0397 0.0182,0 0.0492,-0.0178 0.0689,-0.0397 z m -0.72607,0.0804 c -0.0893,-0.0545 -0.1244,-0.11545 -0.12432,-0.21599 1.4e-4,-0.15663 0.0911,-0.25454 0.23663,-0.25454 0.25198,0 0.32344,0.3608 0.0949,0.47899 -0.0751,0.0388 -0.13354,0.0365 -0.20719,-0.008 z m 0.22242,-0.11173 c 0.0948,-0.10424 0.0241,-0.28064 -0.11235,-0.28064 -0.12749,0 -0.20176,0.16088 -0.12491,0.27059 0.0635,0.0907 0.16018,0.0948 0.23726,0.0101 z m 0.79354,0.12636 c -0.10039,-0.0486 -0.12132,-0.21193 -0.0365,-0.28489 0.10383,-0.0893 0.28339,-0.0249 0.28339,0.10169 0,0.0482 -0.004,0.0497 -0.127,0.0497 -0.0699,0 -0.127,0.008 -0.127,0.0189 0,0.0353 0.0784,0.061 0.14681,0.0482 0.0835,-0.0157 0.0964,0.0311 0.0183,0.0666 -0.0594,0.0271 -0.10184,0.027 -0.15804,-1.8e-4 z m 0.16873,-0.21093 c 0,-0.0382 -0.0806,-0.0645 -0.12948,-0.0422 -0.0732,0.0333 -0.0543,0.061 0.0416,0.061 0.0484,0 0.0879,-0.008 0.0879,-0.0189 z m 0.20841,0.22075 c -0.007,-0.007 -0.013,-0.0863 -0.013,-0.17585 v -0.16282 h 0.10604 c 0.0918,0 0.11159,0.007 0.14738,0.0525 0.0337,0.0428 0.0403,0.0744 0.0356,0.17096 -0.004,0.0897 -0.0128,0.11841 -0.035,0.11841 -0.022,0 -0.0317,-0.0315 -0.0391,-0.127 -0.01,-0.12591 -0.0103,-0.127 -0.0684,-0.127 -0.0557,0 -0.0589,0.004 -0.0638,0.0879 -0.009,0.15539 -0.0295,0.20304 -0.0697,0.16282 z m -10.99426,-1.39613 c 0.23203,-0.0511 0.47467,-0.22387 0.57707,-0.41089 0.0496,-0.0905 0.0579,-0.12798 0.0621,-0.28034 0.003,-0.0967 0.0757,-0.64624 0.16236,-1.22115 0.41134,-2.73025 0.50816,-3.37764 0.50816,-3.39764 0,-0.0149 -0.10198,-0.0216 -0.32975,-0.0216 h -0.32974 l -0.0397,0.0928 c -0.0218,0.0511 -0.18214,0.44011 -0.35623,0.86458 -0.17409,0.42447 -0.40667,0.99158 -0.51686,1.26023 -0.11018,0.26865 -0.3708,0.9017 -0.57914,1.40677 -0.36006,0.87286 -0.37879,0.92459 -0.37844,1.04531 10e-4,0.47388 0.59988,0.79857 1.22017,0.66192 z m 1.8435,-0.0107 c 0.1237,-0.0363 0.29335,-0.12579 0.38242,-0.2017 l 0.0663,-0.0565 -0.0468,-0.12324 c -0.0563,-0.14835 -0.0579,-0.2725 -0.0103,-0.78754 0.0179,-0.19343 0.10239,-1.15179 0.18777,-2.12969 0.0854,-0.9779 0.16067,-1.83296 0.16731,-1.90012 l 0.0121,-0.12212 h -0.52692 -0.52692 l -0.0115,0.0635 c -0.0153,0.0846 -0.5202,3.43641 -0.60554,4.02004 -0.0369,0.25254 -0.0672,0.52152 -0.0673,0.59774 -1.2e-4,0.10419 -0.0131,0.17083 -0.0521,0.26849 l -0.052,0.12991 0.055,0.0491 c 0.092,0.0821 0.32324,0.18672 0.47657,0.21558 0.16669,0.0314 0.39868,0.0215 0.55186,-0.0234 z m 1.82932,5.4e-4 c 0.35268,-0.0989 0.60388,-0.35622 0.61231,-0.62714 0.003,-0.0822 -0.59943,-4.62775 -0.62104,-4.68942 -0.006,-0.0185 -0.10791,-0.0244 -0.41736,-0.0244 -0.40796,0 -0.40882,9e-5 -0.4188,0.044 -0.005,0.0242 -0.10073,1.0913 -0.21163,2.37139 l -0.20165,2.32743 0.0347,0.10994 c 0.0441,0.13997 0.20157,0.3146 0.35914,0.39832 0.10519,0.0559 0.26717,0.10713 0.40624,0.12852 0.0948,0.0146 0.34322,-0.006 0.45813,-0.0386 z m 3.69379,1.7e-4 c 0.36661,-0.1029 0.61184,-0.36796 0.6097,-0.65901 -7.5e-4,-0.10208 -0.0196,-0.16495 -0.12698,-0.42276 -0.0694,-0.16656 -0.19441,-0.4699 -0.27788,-0.67408 -0.0835,-0.20417 -0.2549,-0.62181 -0.38095,-0.92807 -0.12605,-0.30627 -0.35895,-0.87337 -0.51755,-1.26023 -0.15859,-0.38687 -0.35184,-0.85725 -0.42943,-1.04531 l -0.14108,-0.34192 -0.21784,-0.006 c -0.182,-0.005 -0.21783,-7.6e-4 -0.21783,0.0235 0,0.0159 0.0398,0.29099 0.0885,0.61121 0.0487,0.32023 0.10993,0.72731 0.13617,0.90462 0.0262,0.17732 0.10103,0.67408 0.16621,1.10393 0.0652,0.42984 0.13553,0.89584 0.15633,1.03554 0.0208,0.1397 0.0611,0.40347 0.0896,0.58615 0.0617,0.39605 0.0629,0.5111 0.007,0.67284 l -0.0422,0.12198 0.0632,0.0652 c 0.0662,0.0683 0.23437,0.16506 0.35227,0.20265 0.19837,0.0633 0.47718,0.0671 0.68292,0.009 z m -9.12916,-0.0375 c 0.13866,-0.0465 0.32497,-0.15244 0.37565,-0.2135 0.0178,-0.0214 0.0133,-0.0559 -0.0201,-0.15498 -0.0585,-0.17314 -0.0475,-0.41991 0.0257,-0.57806 0.0274,-0.0591 0.26063,-0.62181 0.51838,-1.25046 0.25775,-0.62865 0.64222,-1.56503 0.85438,-2.08084 0.21216,-0.51582 0.38997,-0.95324 0.39514,-0.97204 0.009,-0.0317 -0.0185,-0.0342 -0.37905,-0.0342 h -0.38845 l -1.34527,2.2708 -1.34528,2.2708 0.009,0.14014 c 0.0104,0.16165 0.0645,0.27225 0.19436,0.39701 0.12921,0.12416 0.35927,0.22952 0.573,0.26241 0.12714,0.0196 0.38734,-0.008 0.5326,-0.0571 z m 7.2492,0.04 c 0.31808,-0.075 0.57589,-0.29809 0.63073,-0.5458 0.0188,-0.0848 0.0133,-0.15551 -0.0389,-0.4993 -0.0334,-0.2203 -0.18813,-1.249 -0.34384,-2.286 -0.15571,-1.03701 -0.28816,-1.90974 -0.29434,-1.93942 l -0.0112,-0.054 -0.76528,0.005 c -0.75231,0.005 -0.7652,0.006 -0.76065,0.0442 0.003,0.0215 0.13883,1.03261 0.30285,2.24692 0.32283,2.39013 0.33137,2.4803 0.25154,2.65723 l -0.0441,0.0977 0.0747,0.0631 c 0.10646,0.0899 0.27625,0.17652 0.40945,0.20876 0.15178,0.0367 0.43646,0.0375 0.58903,0.001 z m 3.66277,9e-4 c 0.40725,-0.0863 0.68844,-0.3618 0.6887,-0.67477 l 1e-4,-0.127 -0.28528,-0.46892 c -0.15691,-0.25791 -0.4022,-0.66236 -0.54509,-0.89877 -0.14288,-0.23642 -0.35842,-0.59251 -0.47896,-0.79131 -0.33456,-0.55174 -1.17229,-1.93861 -1.30665,-2.16316 l -0.11939,-0.19954 -0.37638,-7.3e-4 -0.37638,-7.3e-4 0.0308,0.0733 c 0.0169,0.0403 0.43246,1.04922 0.92345,2.24204 l 0.89271,2.16877 -6.3e-4,0.18562 c -5e-4,0.14767 -0.009,0.20459 -0.0429,0.27845 l -0.0423,0.0928 0.0624,0.0586 c 0.0906,0.085 0.30845,0.19396 0.4488,0.22446 0.16088,0.035 0.36467,0.0353 0.52696,9.2e-4 z"
       id="path836" />
    <path
       style="fill:#1e1e1e;fill-opacity:1;stroke:#1e1e1e;stroke-width:0.0383991;stroke-opacity:1"
       d="m 126.99502,153.76579 c -0.36934,-0.14134 -0.54461,-0.32068 -0.59078,-0.60449 -0.0202,-0.1242 0.0903,-0.31298 1.48539,-2.5395 l 1.37938,-2.27302 0.53204,-0.14294 c 0.22229,-0.006 0.40419,0.003 0.40419,0.0208 0,0.0417 -0.12722,0.33918 -1.15285,2.6967 l -0.82045,1.99066 0.0668,0.39275 -0.0874,0.28484 -0.2278,0.10699 c -0.30676,0.14405 -0.71529,0.17187 -0.98856,0.0673 z"
       id="path913"
       sodipodi:nodetypes="cccccsccccccc" />
    <path
       style="fill:#1e1e1e;fill-opacity:1;stroke:#1e1e1e;stroke-width:0.0376207;stroke-opacity:1"
       d="m 130.62915,153.65142 c -0.29807,-0.1251 -0.32655,-0.14991 -0.27389,-0.23863 0.0237,-0.0399 0.067,-0.25924 0.0962,-0.48743 0.0292,-0.2282 0.20924,-1.35129 0.40002,-2.49577 l 0.34689,-2.08085 h 0.56638 c 0.5319,0 0.5664,0.004 0.5664,0.0685 0,0.0377 -0.0991,1.07052 -0.22023,2.29519 -0.12508,1.26467 -0.2112,2.31157 -0.19932,2.42315 0.0115,0.10807 0.0259,0.23667 0.032,0.28579 0.01,0.0773 -0.023,0.10491 -0.24264,0.2054 -0.22049,0.10087 -0.29322,0.11606 -0.55467,0.11576 -0.23855,-3e-4 -0.34572,-0.0192 -0.51716,-0.0911 z"
       id="path952" />
    <path
       style="fill:#1e1e1e;fill-opacity:1;stroke:#1e1e1e;stroke-width:0.0363848;stroke-opacity:1"
       d="m 134.44647,153.65804 c -0.0793,-0.0283 -0.1985,-0.0919 -0.26508,-0.14152 -0.11264,-0.0838 -0.11829,-0.0979 -0.0812,-0.20181 0.0626,-0.17523 0.013,-0.661 -0.29642,-2.90582 l -0.28485,-2.06605 0.1673,-0.0239 c 0.26053,-0.0372 1.40158,-0.0345 1.40158,0.003 0,0.0182 0.15051,1.00052 0.33446,2.18283 0.38542,2.47722 0.40264,2.63932 0.29756,2.80123 -0.0954,0.14693 -0.28459,0.28566 -0.48259,0.35378 -0.19661,0.0677 -0.59887,0.0667 -0.79086,-0.002 z"
       id="path991" />
    <path
       style="fill:#1e1e1e;fill-opacity:1;stroke:#1e1e1e;stroke-width:0.0371927;stroke-opacity:1"
       d="m 138.34791,153.75073 c -0.15727,-0.0482 -0.40587,-0.17486 -0.45763,-0.23306 -0.0355,-0.0399 -0.19313,-0.0981 -0.16273,-0.15094 0.0226,-0.0395 0.066,-0.22399 0.066,-0.34152 0,-0.19714 0.0561,-0.3018 -0.83508,-2.3196 -0.53124,-1.20282 -0.98151,-2.22388 -1.00059,-2.26903 l -0.0347,-0.0821 0.26794,-0.11753 c 0,0 0.62361,0.0134 0.57378,0.0818 0.0997,-0.0249 0.64859,1.15188 0.64859,1.15188 0.38928,0.6027 1.06197,1.6413 1.49486,2.30799 0.43289,0.6667 0.78708,1.24522 0.78708,1.28561 0,0.1062 -0.10564,0.32604 -0.20398,0.42448 -0.1638,0.16398 -0.44605,0.26827 -0.75856,0.28029 -0.15882,0.006 -0.33207,-0.002 -0.38501,-0.0185 z"
       id="path1030"
       sodipodi:nodetypes="cccscccccccscccc" />
    <path
       style="fill:#1e1e1e;fill-opacity:1;stroke:none;stroke-width:0.133178"
       d="M 2.8633285,48.734926 C 1.6963454,48.145059 1.8566342,46.179985 2.9247439,45.454815 3.2633412,45.224932 4.3863657,44.858179 24.745729,45.097424 l 21.349688,0.08324 0.775362,0.591731 c 1.033837,0.788988 0.283411,2.836563 -0.879215,3.278592 -0.19999,0.07604 -8.656764,-0.05929 -21.428881,-0.06113 C 6.063481,48.987179 3.2152811,48.912825 2.8633285,48.734926 Z"
       id="path1069"
       transform="matrix(0.26458333,0,0,0.26458333,126.35377,148.11029)"
       sodipodi:nodetypes="ssscssss" />
    <path
       style="fill:#1e1e1e;fill-opacity:1;stroke:#1e1e1e;stroke-width:0.0332945;stroke-opacity:1"
       d="m 19.244231,34.526414 0.231335,-9.846741 4.945962,-0.08108 4.949408,0.08108 0.394362,9.896683 0.493184,9.74658 -5.836954,0.258423 -5.832262,-0.258763 z m 8.086269,2.214404 c 0.694932,-0.147231 1.296408,-0.70715 1.468219,-1.366777 0.06532,-0.25076 0.06536,-0.711842 1e-4,-0.962416 -0.216044,-0.829448 -0.973645,-1.414478 -1.834033,-1.416266 -0.54027,-0.0011 -0.942832,0.163995 -1.328379,0.544859 -0.381427,0.376785 -0.548988,0.793026 -0.548988,1.363727 0,0.499527 0.152141,0.895845 0.478173,1.245611 0.492372,0.528217 1.100649,0.731996 1.764908,0.591262 z"
       id="path2974"
       transform="matrix(0.26458333,0,0,0.26458333,126.35377,148.11029)"
       sodipodi:nodetypes="cccccccccssccssss" />
    <path
       style="fill:#ffffff;fill-opacity:0.5;stroke:none;stroke-width:0.188342;stroke-opacity:1"
       d="m 6.3094648,32.959891 v -8.098716 h 4.8968982 4.896898 v 8.098716 8.098715 H 11.206363 6.3094648 Z"
       id="path4681"
       transform="matrix(0.26458333,0,0,0.26458333,126.35377,148.11029)" />
    <path
       style="fill:#ffffff;fill-opacity:1;stroke:none;stroke-width:0.0332945;stroke-opacity:1"
       d="M 5.4889125,43.842554 C 5.14602,43.510617 5.128987,43.473194 5.1280935,43.049811 c -6.687e-4,-0.31684 0.00805,-0.367494 0.093089,-0.540665 0.088687,-0.180605 0.2660517,-0.360939 0.4477199,-0.455214 0.1676599,-0.08701 0.9542089,-0.100641 5.8679256,-0.101719 l 5.110986,-0.0011 0.20699,0.135247 c 0.388091,0.253579 0.517884,0.481627 0.514015,0.90313 -0.0027,0.296181 -0.05312,0.475446 -0.190132,0.67629 -0.13783,0.202039 -0.300075,0.316772 -0.508307,0.359453 -0.09456,0.01938 -2.284341,0.0377 -5.543175,0.04638 l -5.3868764,0.01434 z"
       id="path4757"
       transform="matrix(0.26458333,0,0,0.26458333,126.35377,148.11029)" />
    <path
       style="fill:#ffffff;fill-opacity:1;stroke:none;stroke-width:0.0941711;stroke-opacity:1"
       d="M 10.276364,20.989712 C 9.0494468,20.701624 8.1035059,19.828531 7.9195335,18.814384 c -0.090412,-0.498397 0.07613,-0.948928 2.8033785,-7.583738 1.314827,-3.1986941 2.803846,-6.8222606 3.30893,-8.0523708 l 0.918335,-2.23656404 h 1.159554 c 0.637754,0 1.178875,0.0317827 1.202489,0.0706283 0.02361,0.038846 0.0047,0.3037018 -0.0421,0.5885695 -0.299968,1.8269842 -2.176306,14.591935 -2.297828,15.632405 -0.08167,0.699221 -0.169911,1.447915 -0.196101,1.663765 -0.09567,0.788486 -1.012096,1.666416 -2.096549,2.008476 -0.64088,0.202146 -1.737272,0.24054 -2.403274,0.08416 z"
       id="path4833"
       transform="matrix(0.26458333,0,0,0.26458333,126.35377,148.11029)" />
    <path
       style="fill:#ffffff;fill-opacity:1;stroke:none;stroke-width:0.0941711;stroke-opacity:1"
       d="m 23.872378,20.922286 c -0.284868,-0.0948 -0.645072,-0.239793 -0.800455,-0.322206 -0.42822,-0.227123 -1.051481,-0.914232 -1.260089,-1.389172 l -0.186132,-0.42377 0.698878,-8.004545 c 0.861074,-9.86226226 0.850545,-9.758687 1.00183,-9.8546535 0.165963,-0.10527724 2.455666,-0.10155149 2.73447,0.004449 0.1977,0.0751655 0.236265,0.1799513 0.337917,0.9181683 0.361539,2.6255837 1.74056,13.0145732 1.961522,14.7773212 0.316223,2.522709 0.299262,2.633975 -0.524545,3.441009 -0.719644,0.704993 -1.347832,0.949606 -2.550829,0.993282 -0.682999,0.0248 -1.017147,-0.0083 -1.412567,-0.139883 z"
       id="path4872"
       transform="matrix(0.26458333,0,0,0.26458333,126.35377,148.11029)" />
    <path
       style="fill:#ffffff;fill-opacity:1;stroke:none;stroke-width:0.0941711;stroke-opacity:1"
       d="m 37.897221,20.971376 c -0.512527,-0.145114 -1.183827,-0.525918 -1.472887,-0.835518 -0.20121,-0.215506 -0.203261,-0.23724 -0.06083,-0.644616 0.107955,-0.308778 0.134636,-0.635783 0.09971,-1.222046 -0.02623,-0.44025 -0.58108,-4.320551 -1.232997,-8.6228915 C 34.578299,5.3439639 34.033856,1.6147877 34.020343,1.3592463 l -0.02457,-0.4646207 0.739835,0.0178563 c 0.406909,0.009821 0.750665,0.0310095 0.763902,0.0470856 0.0249,0.030235 5.362212,13.0210145 6.420697,15.6276805 0.466573,1.148998 0.598052,1.579411 0.598052,1.957801 0,0.899662 -0.61156,1.701414 -1.678725,2.200801 -0.531648,0.248788 -0.737734,0.290607 -1.562167,0.316995 -0.585184,0.01873 -1.114935,-0.01638 -1.380146,-0.09147 z"
       id="path4911"
       transform="matrix(0.26458333,0,0,0.26458333,126.35377,148.11029)" />
    <path
       style="fill:#ffffff;fill-opacity:0.5;stroke:none;stroke-width:0.0941711;stroke-opacity:1"
       d="m 32.441949,33.054062 v -8.287059 h 5.179412 5.179411 v 8.287059 8.287058 h -5.179411 -5.179412 z"
       id="path4950"
       transform="matrix(0.26458333,0,0,0.26458333,126.35377,148.11029)" />
    <path
       style="fill:#ffffff;fill-opacity:1;stroke:none;stroke-width:0.0941711;stroke-opacity:1"
       d="m 47.69767,25.473287 v -2.401364 h 4.002273 4.002272 v 1.96445 c 0,1.080448 -0.02695,2.161061 -0.05989,2.401364 l -0.05988,0.436913 H 51.640057 47.69767 Z m 3.184015,1.151676 c 0.02471,-0.207926 0.08203,-0.250872 0.367329,-0.275251 0.618381,-0.05284 0.875734,-0.72068 0.444061,-1.152353 -0.09803,-0.09803 -0.320085,-0.147842 -0.659057,-0.147842 h -0.511214 v 0.87893 c 0,0.483412 0.02913,0.908065 0.06474,0.943673 0.120936,0.120936 0.264752,9.2e-5 0.294139,-0.247157 z m 3.350802,-0.311838 c 0.03144,-0.08193 0.05716,-0.295142 0.05716,-0.473811 0,-0.205921 0.0532,-0.345268 0.145318,-0.380616 0.203045,-0.07792 0.246589,-0.0085 0.301743,0.480793 0.05793,0.513913 0.269854,0.577248 0.358071,0.10701 0.126122,-0.672287 -0.109179,-0.996984 -0.722491,-0.996984 h -0.459325 v 0.643502 c 0,0.353927 0.02825,0.671754 0.06278,0.706284 0.103124,0.103124 0.196072,0.07193 0.256742,-0.08618 z m -4.444662,-0.198259 c 0.216907,-0.207811 0.264123,-0.33313 0.264123,-0.701032 0,-0.650191 -0.298907,-0.976429 -0.894626,-0.976429 -0.599119,0 -0.894625,0.325581 -0.894625,0.985676 0,0.394964 0.03946,0.490436 0.289738,0.701032 0.396426,0.33357 0.881354,0.32994 1.23539,-0.0092 z m 3.541278,0.140041 c 0.195243,-0.195243 0.125364,-0.263679 -0.269237,-0.263679 -0.230848,0 -0.359191,-0.0373 -0.324041,-0.09417 0.03201,-0.05179 0.225208,-0.09417 0.429328,-0.09417 0.318103,0 0.371126,-0.02921 0.371126,-0.20447 0,-0.489666 -0.753791,-0.748155 -1.146181,-0.393047 -0.211375,0.191292 -0.224232,0.669686 -0.02562,0.953248 0.164756,0.235221 0.765704,0.295209 0.964623,0.09629 z"
       id="path4989"
       transform="matrix(0.26458333,0,0,0.26458333,126.35377,148.11029)" />
    <path
       style="fill:#ffffff;fill-opacity:1;stroke:none;stroke-width:0.0941711;stroke-opacity:1"
       d="m 4.0218161,33.203132 c 0.015148,-6.081511 0.049899,-11.079634 0.077224,-11.10694 0.027325,-0.02731 0.4217016,-0.09588 0.8763925,-0.152379 1.0085485,-0.125327 1.6589755,-0.359475 2.3571701,-0.848562 l 0.5307521,-0.371793 0.3060229,0.26717 c 0.3952297,0.345052 1.1118226,0.70444 1.80833,0.90692 0.4298043,0.124948 0.7950053,0.151071 1.6439723,0.117598 1.215759,-0.04794 1.883144,-0.255644 2.695199,-0.838818 0.357183,-0.256509 0.458877,-0.29048 0.590961,-0.197408 0.470203,0.331324 1.004131,0.617344 1.493714,0.800169 0.464921,0.173615 0.744431,0.205002 1.820557,0.204433 1.44007,-7.63e-4 1.902488,-0.127412 2.890778,-0.791749 l 0.533951,-0.358927 0.477115,0.316415 c 0.262412,0.174028 0.752563,0.432966 1.089225,0.575417 0.560579,0.237197 0.715179,0.259224 1.836337,0.26164 1.432924,0.0031 2.120545,-0.180324 3.008796,-0.802546 0.292042,-0.204575 0.548409,-0.371955 0.569706,-0.371955 0.0213,0 0.281896,0.170343 0.579108,0.378541 1.645984,1.153016 4.389342,1.088827 6.000955,-0.14041 0.171713,-0.130972 0.334378,-0.238131 0.361476,-0.238131 0.0271,0 0.320284,0.181735 0.651525,0.403856 0.910127,0.610307 1.512881,0.773283 2.85993,0.773283 1.347049,0 1.949803,-0.162976 2.85993,-0.773283 0.331241,-0.222121 0.616402,-0.403856 0.633694,-0.403856 0.01729,0 0.283842,0.163136 0.592336,0.362526 0.308495,0.199389 0.860826,0.458966 1.227402,0.576836 l 0.666504,0.214309 v 0.976988 0.976987 H 44.74281 c -0.382634,0 -0.553674,0.178732 -0.512733,0.53579 0.02733,0.238337 0.07016,0.267545 0.430575,0.293622 l 0.400227,0.02896 v 9.741296 9.741295 h -0.245503 c -0.195859,0 -0.232324,-0.03332 -0.18033,-0.164799 0.285348,-0.721551 0.09251,-1.586048 -0.481932,-2.160489 l -0.410631,-0.41063 -0.0079,-8.119781 c -0.0044,-4.465879 -0.0384,-8.363576 -0.07562,-8.661549 -0.03722,-0.297973 -0.120498,-0.594612 -0.185058,-0.659198 -0.09052,-0.09055 -1.393118,-0.123324 -5.691053,-0.143186 -5.723986,-0.02645 -5.99207,-0.01161 -6.15135,0.340435 -0.03886,0.0859 -0.106311,4.008275 -0.149883,8.716393 l -0.07922,8.560216 -0.33689,0.372898 c -0.18529,0.205093 -0.396338,0.515175 -0.468997,0.689071 -0.153124,0.366479 -0.17281,1.050445 -0.04027,1.399061 0.07903,0.207864 0.06635,0.241558 -0.09091,0.241558 -0.179569,0 -0.183218,-0.173763 -0.209555,-9.979556 l -0.0268,-9.979556 -0.214501,-0.214467 -0.214501,-0.214467 h -5.408859 c -5.041037,0 -5.420152,0.01129 -5.574894,0.166032 -0.242628,0.242629 -0.294202,2.282079 -0.303604,12.005585 l -0.0079,8.216429 H 18.226809 17.9489 l 0.18167,-0.400227 c 0.374282,-0.824561 0.08338,-1.996009 -0.606684,-2.443127 l -0.335232,-0.217207 -0.01114,-7.486604 c -0.01237,-8.312947 -0.04406,-9.322541 -0.300622,-9.578758 -0.157532,-0.157319 -0.516434,-0.167952 -5.669115,-0.167952 -4.2680729,0 -5.5272521,0.02632 -5.6183516,0.117429 -0.064578,0.06459 -0.1478684,0.361225 -0.18509,0.659198 -0.037222,0.297973 -0.071251,4.10847 -0.075622,8.467772 l -0.00795,7.926003 -0.3692728,0.29247 C 4.232707,41.99871 3.9682628,43.125088 4.3689007,43.910916 l 0.1781907,0.34951 H 4.2706351 3.9942742 Z"
       id="path5046"
       transform="matrix(0.26458333,0,0,0.26458333,126.35377,148.11029)" />
    <path
       style="fill:#ffffff;fill-opacity:1;stroke:none;stroke-width:0.0941711;stroke-opacity:1"
       d="m 4.0218161,33.203132 c 0.015148,-6.081511 0.049899,-11.079634 0.077224,-11.10694 0.027325,-0.02731 0.4217016,-0.09588 0.8763925,-0.152379 1.0066614,-0.125092 1.6589075,-0.359428 2.3522137,-0.84509 l 0.5257958,-0.368321 0.3580649,0.285641 c 0.9553736,0.762136 1.936018,1.053957 3.358794,0.999512 1.196749,-0.0458 1.879959,-0.246627 2.656429,-0.780862 0.262762,-0.180788 0.502731,-0.328705 0.533265,-0.328705 0.03053,0 0.279958,0.147812 0.554275,0.328471 0.888281,0.585002 1.556792,0.75496 2.954926,0.751237 1.123638,-0.003 1.275984,-0.02491 1.854179,-0.266702 0.346474,-0.144894 0.828938,-0.404916 1.072143,-0.577828 l 0.442189,-0.314385 0.48168,0.319447 c 0.264924,0.175696 0.757131,0.436339 1.093793,0.579206 0.5617,0.238366 0.712938,0.259914 1.836337,0.26164 1.432927,0.0022 2.12124,-0.181567 3.008796,-0.803302 0.292042,-0.204575 0.548409,-0.371955 0.569706,-0.371955 0.0213,0 0.281896,0.170343 0.579108,0.378541 1.638426,1.147721 4.395242,1.084327 5.99769,-0.13792 0.173509,-0.132342 0.341372,-0.240621 0.37303,-0.240621 0.03166,0 0.296499,0.16738 0.588541,0.371955 0.866272,0.606826 1.584293,0.805184 2.914625,0.805184 1.347049,0 1.949803,-0.162976 2.85993,-0.773283 0.331241,-0.222121 0.615385,-0.403856 0.631432,-0.403856 0.01605,0 0.296481,0.166887 0.623186,0.370861 0.326704,0.203974 0.880053,0.464198 1.229663,0.578276 l 0.635655,0.207414 v 0.975548 0.975547 H 44.74281 c -0.382634,0 -0.553674,0.178732 -0.512733,0.53579 0.02733,0.238337 0.07016,0.267545 0.430575,0.293622 l 0.400227,0.02896 v 9.741296 9.741295 h -0.241774 c -0.210755,0 -0.231898,-0.02718 -0.1648,-0.211885 0.252793,-0.695855 -0.05396,-1.804711 -0.622789,-2.251238 l -0.281215,-0.220753 -0.03247,-8.522486 c -0.01786,-4.687368 -0.06706,-8.618298 -0.109333,-8.735401 -0.04227,-0.117104 -0.188337,-0.244235 -0.324582,-0.282514 -0.136245,-0.03828 -2.736182,-0.0696 -5.777638,-0.0696 h -5.529921 l -0.212226,0.212209 -0.212225,0.212209 -0.07647,8.585302 -0.07647,8.585302 -0.335203,0.37103 c -0.184362,0.204066 -0.39465,0.513308 -0.467309,0.687204 -0.153124,0.366479 -0.17281,1.050445 -0.04027,1.399061 0.07903,0.207864 0.06635,0.241558 -0.09091,0.241558 -0.179568,0 -0.183217,-0.173763 -0.209554,-9.979556 l -0.0268,-9.979556 -0.214517,-0.214467 -0.214518,-0.214467 h -5.408858 c -5.047318,0 -5.41999,0.01113 -5.575387,0.166544 -0.241218,0.241239 -0.29288,2.297804 -0.302754,12.052158 l -0.0083,8.169344 h -0.277909 -0.277909 l 0.18167,-0.400227 c 0.09992,-0.220125 0.1826,-0.593198 0.183738,-0.82905 0.0027,-0.565838 -0.389791,-1.354824 -0.80909,-1.626314 l -0.316564,-0.20497 -0.0012,-7.118572 c -0.0013,-8.142474 -0.04424,-9.606991 -0.290333,-9.910932 l -0.165022,-0.20381 h -5.352544 c -2.9438989,0 -5.4644061,0.03142 -5.601127,0.06981 -0.1367208,0.0384 -0.2849091,0.144341 -0.3293071,0.235428 -0.044398,0.09109 -0.093364,3.924527 -0.1088125,8.518755 l -0.028089,8.353143 -0.3650185,0.289101 c -0.7146032,0.565976 -0.977935,1.694332 -0.5783356,2.478123 l 0.1781907,0.34951 H 4.2706351 3.9942742 Z"
       id="path5085"
       transform="matrix(0.26458333,0,0,0.26458333,126.35377,148.11029)" />
    <path
       style="fill:#ffffff;fill-opacity:1;stroke:none;stroke-width:0.0470856;stroke-opacity:1"
       d="m 3.9944696,38.833814 c 0.017216,-3.010533 0.031311,-8.029316 0.031323,-11.152852 l 2.23e-5,-5.679155 0.5061697,-0.03355 c 1.2626309,-0.0837 2.113838,-0.374199 2.9546188,-1.008361 l 0.3766845,-0.284116 0.1647994,0.156531 c 0.4338626,0.412095 0.9162435,0.693072 1.6715373,0.973633 l 0.4237704,0.157414 1.177139,0.001 c 1.086948,9.5e-4 1.206,-0.0072 1.553823,-0.106653 0.468956,-0.134059 1.148984,-0.466985 1.459653,-0.714612 0.471792,-0.376055 0.389175,-0.369168 0.806785,-0.06725 0.440534,0.318491 0.967826,0.57587 1.547751,0.755482 0.412824,0.127858 0.452029,0.131205 1.553565,0.132616 l 1.130053,0.0014 0.433729,-0.151524 c 0.703087,-0.245623 1.347879,-0.596381 1.694825,-0.92196 l 0.150961,-0.141664 0.319895,0.247304 c 0.356769,0.275811 1.066706,0.637382 1.638291,0.834382 0.352533,0.121503 0.437062,0.130935 1.318395,0.147118 0.796288,0.01462 1.010884,0.0031 1.389652,-0.07455 0.756188,-0.155037 1.490196,-0.497704 2.068273,-0.96556 l 0.256108,-0.207276 0.40309,0.299051 c 0.874404,0.648716 1.645769,0.90608 2.834608,0.945759 1.416368,0.04727 2.403459,-0.239938 3.369019,-0.980276 l 0.350168,-0.268489 0.397529,0.299824 c 0.464846,0.350594 1.004568,0.622105 1.597568,0.803665 0.407642,0.124809 0.464091,0.129832 1.483195,0.13197 0.964709,0.002 1.095207,-0.0075 1.459653,-0.106724 0.561951,-0.152971 1.177913,-0.457769 1.657379,-0.820126 L 42.584115,20.7267 42.8337,20.914184 c 0.570335,0.428424 1.391957,0.822691 1.956437,0.938823 l 0.294285,0.06055 v 1.002919 1.002918 h -0.23694 c -0.357869,0 -0.546528,0.09697 -0.611243,0.314179 -0.06812,0.228627 -0.0013,0.4229 0.167663,0.48712 0.06689,0.02543 0.247375,0.04624 0.401072,0.04624 h 0.279448 v 9.770254 9.770253 h -0.258971 c -0.142434,0 -0.25897,-0.01852 -0.25897,-0.04116 0,-0.02264 0.02882,-0.123287 0.06404,-0.223657 0.09869,-0.281222 0.130408,-0.67214 0.07932,-0.977627 -0.0898,-0.536988 -0.442446,-1.110143 -0.830654,-1.350069 l -0.160249,-0.09904 -0.0035,-7.02368 c -0.0019,-3.863023 -0.02006,-7.712305 -0.0403,-8.553959 -0.04035,-1.6786 -0.06864,-1.851871 -0.323661,-1.982971 -0.105587,-0.05428 -1.051338,-0.06754 -5.624089,-0.07886 -3.642182,-0.009 -5.557525,0.0026 -5.676053,0.03456 -0.09839,0.02649 -0.24041,0.112379 -0.315595,0.190856 l -0.136701,0.142684 -0.03868,1.353033 c -0.02127,0.744168 -0.05421,4.626656 -0.07319,8.627752 l -0.03451,7.274718 -0.332785,0.329599 c -0.449697,0.445392 -0.597392,0.751645 -0.622627,1.291047 -0.01282,0.274073 0.0054,0.497092 0.05651,0.693343 0.100701,0.386341 0.09923,0.393431 -0.08171,0.393431 h -0.157123 l -0.03122,-2.12658 c -0.01717,-1.169619 -0.03259,-5.168949 -0.03428,-8.887399 -0.0017,-3.71845 -0.01894,-7.258792 -0.03835,-7.867425 -0.03826,-1.199751 -0.05134,-1.257552 -0.326779,-1.444514 -0.120198,-0.08159 -0.37981,-0.08567 -5.446881,-0.08567 -4.990406,0 -5.33008,0.0051 -5.472301,0.08289 -0.185805,0.101567 -0.244241,0.205658 -0.307092,0.547016 -0.03197,0.173613 -0.05865,3.619242 -0.07752,10.011433 l -0.02878,9.74671 -0.317828,0.01392 c -0.174805,0.0077 -0.317827,0.0046 -0.317827,-0.0069 0,-0.01144 0.07946,-0.187217 0.176571,-0.390608 0.169347,-0.354671 0.17657,-0.390026 0.17657,-0.864198 0,-0.471993 -0.0077,-0.510402 -0.170745,-0.84754 -0.180668,-0.373663 -0.443344,-0.671622 -0.779059,-0.883704 L 17.115769,41.17632 17.11487,33.218861 c -5.5e-4,-4.854403 -0.01888,-8.128079 -0.04699,-8.394995 -0.05202,-0.493845 -0.134441,-0.694298 -0.319445,-0.77694 -0.09696,-0.04331 -1.404335,-0.05683 -5.494984,-0.05683 -5.8922126,0 -5.6003465,-0.01449 -5.7424653,0.285007 -0.1463525,0.308415 -0.1659784,1.491689 -0.1664178,10.033593 l -3.541e-4,6.881354 -0.2329424,0.149479 c -0.4754879,0.30512 -0.809829,0.833384 -0.9019499,1.425095 -0.059013,0.379056 0.033149,0.869323 0.2326668,1.237693 0.075607,0.139593 0.125904,0.265369 0.1117714,0.279501 -0.014132,0.01413 -0.1527964,0.0257 -0.3081418,0.0257 H 3.9631687 Z"
       id="path5124"
       transform="matrix(0.26458333,0,0,0.26458333,126.35377,148.11029)" />
  </g>
</svg>
